<svg t="1698805711342" class="icon" viewBox="0 0 1024 1024" version="1.1" xmlns="http://www.w3.org/2000/svg" p-id="1560" width="200" height="200"><path d="M321.892174 333.913043a34.281739 34.281739 0 0 0-36.730435 30.497392 34.281739 34.281739 0 0 0 36.730435 30.497391 30.497391 30.497391 0 0 0 0-60.994783zM492.410435 395.353043a30.497391 30.497391 0 0 0 0-60.994782 34.05913 34.05913 0 0 0-36.507826 30.497391 34.05913 34.05913 0 0 0 36.507826 30.497391zM571.65913 512a24.486957 24.486957 0 0 0 0 48.751304 27.603478 27.603478 0 0 0 30.497392-24.264347 27.826087 27.826087 0 0 0-30.497392-24.486957z" fill="#009900" p-id="1561"></path><path d="M501.76 22.26087a489.73913 489.73913 0 1 0 489.73913 489.73913 489.73913 489.73913 0 0 0-489.73913-489.73913zM400.695652 645.565217a418.949565 418.949565 0 0 1-85.481739-12.243478l-85.036522 42.74087 24.264348-73.238261c-60.994783-42.74087-97.502609-97.725217-97.502609-164.507826 0-115.97913 109.746087-207.248696 244.869566-207.248696 119.763478 0 224.834783 73.015652 244.869565 171.186087A206.135652 206.135652 0 0 0 623.304348 400.695652c-115.756522 0-207.248696 86.372174-207.248696 192.779131A184.987826 184.987826 0 0 0 422.956522 645.565217h-22.26087z m359.513044 85.48174l18.921739 60.549565-66.782609-36.507826a312.987826 312.987826 0 0 1-73.238261 12.243478c-115.97913 0-207.248696-79.248696-207.248695-176.973913s91.269565-176.751304 207.248695-176.751304c109.523478 0 207.026087 79.471304 207.026087 176.751304-0.222609 55.206957-36.730435 103.735652-85.481739 140.466087z" fill="#009900" p-id="1562"></path><path d="M705.669565 512a24.486957 24.486957 0 0 0 0 48.751304 27.826087 27.826087 0 0 0 30.497392-24.264347A28.048696 28.048696 0 0 0 705.669565 512z" fill="#009900" p-id="1563"></path></svg>